<?xml version="1.0" standalone="no"?><!DOCTYPE svg PUBLIC "-//W3C//DTD SVG 1.1//EN" "http://www.w3.org/Graphics/SVG/1.1/DTD/svg11.dtd"><svg class="icon" width="200px" height="200.00px" viewBox="0 0 1024 1024" version="1.1" xmlns="http://www.w3.org/2000/svg"><path fill="#707070" d="M636.8 358.4c-9.6 0-16 3.2-22.4 9.6l-156.8 156.8-67.2-67.2c-6.4-6.4-16-9.6-22.4-9.6-9.6 0-16 3.2-22.4 9.6l-134.4 134.4c-12.8 12.8-12.8 32 0 44.8s32 12.8 44.8 0l112-112 67.2 67.2c6.4 6.4 16 9.6 22.4 9.6 9.6 0 16-3.2 22.4-9.6l156.8-156.8 67.2 67.2c6.4 6.4 16 9.6 22.4 9.6 9.6 0 16-3.2 22.4-9.6l89.6-89.6c12.8-12.8 12.8-32 0-44.8s-32-12.8-44.8 0l-67.2 67.2-67.2-67.2c-3.2-6.4-12.8-9.6-22.4-9.6z m259.2-102.4c0-19.2-12.8-32-32-32h-704c-19.2 0-32 12.8-32 32v512c0 19.2 12.8 32 32 32h704c19.2 0 32-12.8 32-32v-512z m64 0v512c0 54.4-41.6 96-96 96h-704c-54.4 0-96-41.6-96-96v-512c0-54.4 41.6-96 96-96h704c54.4 0 96 41.6 96 96z" /></svg>